<svg width="178" height="178" viewBox="0 0 178 178" fill="none" xmlns="http://www.w3.org/2000/svg"><circle cx="89" cy="89" r="84.5" stroke="#3C3C3C" stroke-width="9"/><mask id="a" fill="#fff"><path d="M173.509 89c2.48 0 4.503 2.012 4.378 4.49a89 89 0 11-55.103-86.83c2.294.942 3.254 3.629 2.198 5.873-1.056 2.245-3.728 3.195-6.028 2.267a80.017 80.017 0 1049.937 78.688c.139-2.476 2.137-4.49 4.618-4.49z"/></mask><path d="M173.509 89c2.48 0 4.503 2.012 4.378 4.49a89 89 0 11-55.103-86.83c2.294.942 3.254 3.629 2.198 5.873-1.056 2.245-3.728 3.195-6.028 2.267a80.017 80.017 0 1049.937 78.688c.139-2.476 2.137-4.49 4.618-4.49z" stroke="#6F6AF8" stroke-width="18" mask="url(#a)"/></svg>