<svg width="85" height="29" viewBox="0 0 85 29" fill="none" xmlns="http://www.w3.org/2000/svg"><path d="M44.688 20.192c-1.141 0-2.176-.245-3.104-.736a5.703 5.703 0 01-2.176-2.064c-.523-.885-.784-1.883-.784-2.992 0-1.11.261-2.101.784-2.976a5.549 5.549 0 012.176-2.064c.928-.501 1.968-.752 3.12-.752.97 0 1.845.17 2.624.512.79.341 1.45.832 1.984 1.472l-1.664 1.536c-.757-.875-1.696-1.312-2.816-1.312-.693 0-1.312.155-1.856.464-.544.299-.97.72-1.28 1.264-.299.544-.448 1.163-.448 1.856 0 .693.15 1.312.448 1.856.31.544.736.97 1.28 1.28.544.299 1.163.448 1.856.448 1.12 0 2.059-.443 2.816-1.328l1.664 1.536a5.186 5.186 0 01-1.984 1.488c-.79.341-1.67.512-2.64.512zM57.19 8.8c.992 0 1.851.165 2.576.496.736.33 1.302.8 1.696 1.408.395.608.592 1.328.592 2.16 0 .821-.197 1.541-.592 2.16-.394.608-.96 1.077-1.696 1.408-.725.32-1.584.48-2.576.48h-2.256V20h-2.592V8.8h4.848zm-.144 6c.779 0 1.371-.165 1.776-.496.406-.341.608-.821.608-1.44 0-.63-.202-1.11-.608-1.44-.405-.341-.997-.512-1.776-.512h-2.112V14.8h2.112zm11.357-3.536c1.333 0 2.357.32 3.072.96.714.63 1.072 1.584 1.072 2.864V20H70.21v-1.072c-.47.8-1.344 1.2-2.624 1.2-.662 0-1.238-.112-1.728-.336-.48-.224-.848-.533-1.104-.928a2.415 2.415 0 01-.384-1.344c0-.8.298-1.43.896-1.888.608-.459 1.541-.688 2.8-.688h1.984c0-.544-.166-.96-.496-1.248-.33-.299-.827-.448-1.488-.448-.459 0-.912.075-1.36.224-.438.139-.81.33-1.12.576l-.896-1.744c.47-.33 1.03-.587 1.68-.768a7.651 7.651 0 012.032-.272zm-.192 7.184a2.22 2.22 0 001.136-.288c.33-.203.565-.496.704-.88v-.88h-1.712c-1.024 0-1.536.336-1.536 1.008 0 .32.122.576.368.768.256.181.602.272 1.04.272zm16.263-7.056l-3.889 9.136c-.394.992-.885 1.69-1.471 2.096-.577.405-1.275.608-2.097.608-.447 0-.89-.07-1.328-.208-.437-.139-.794-.33-1.071-.576l.912-1.776a2.167 2.167 0 001.407.544c.342 0 .62-.085.832-.256.214-.16.406-.432.576-.816l.032-.08-3.727-8.672h2.575l2.416 5.84 2.432-5.84h2.4z" fill="#252525"/><path d="M14.343 6.708l4.388.035 2.224 3.783 2.164 3.817-2.164 3.818-2.224 3.782-4.388.035-4.388-.035-2.224-3.782-2.164-3.818 2.164-3.817 2.224-3.783 4.388-.035z" stroke="#6F6AF8" stroke-width="3"/></svg>