<svg width="178" height="178" viewBox="0 0 178 178" fill="none" xmlns="http://www.w3.org/2000/svg"><circle cx="89" cy="89" r="84.5" stroke="#3C3C3C" stroke-width="9"/><mask id="a" fill="#fff"><path d="M173.509 89c2.48 0 4.503 2.012 4.378 4.49a89.002 89.002 0 01-21.018 53.084c-1.605 1.892-4.457 1.974-6.265.276-1.808-1.698-1.886-4.533-.292-6.433a80.026 80.026 0 0018.579-46.928c.139-2.476 2.137-4.49 4.618-4.49z"/></mask><path d="M173.509 89c2.48 0 4.503 2.012 4.378 4.49a89.002 89.002 0 01-21.018 53.084c-1.605 1.892-4.457 1.974-6.265.276-1.808-1.698-1.886-4.533-.292-6.433a80.026 80.026 0 0018.579-46.928c.139-2.476 2.137-4.49 4.618-4.49z" stroke="#6F6AF8" stroke-width="18" mask="url(#a)"/></svg>