<svg width="16" height="16" viewBox="0 0 16 16" fill="none" xmlns="http://www.w3.org/2000/svg"><g clip-path="url(#clip0_301_204)"><path d="M12.832 0H6.11c-.977 0-1.771.794-1.771 1.77v.218H3.168c-.977 0-1.771.795-1.771 1.771v10.47c0 .977.794 1.771 1.77 1.771H9.89c.976 0 1.77-.794 1.77-1.77v-.218h1.172c.976 0 1.77-.795 1.77-1.77V1.77c0-.977-.794-1.771-1.77-1.771zm-2.314 14.23a.63.63 0 01-.628.628H3.168a.63.63 0 01-.629-.629V3.76a.63.63 0 01.629-.629H9.89a.63.63 0 01.628.629v10.47zm2.942-1.989a.63.63 0 01-.628.629H11.66V3.759c0-.976-.795-1.77-1.771-1.77H5.48V1.77a.63.63 0 01.629-.629h6.722a.63.63 0 01.628.629v10.47z" fill="#6F6AF8"/></g><defs><clipPath id="clip0_301_204"><path fill="#fff" d="M0 0h16v16H0z"/></clipPath></defs></svg>