<svg width="134" height="231" viewBox="0 0 134 231" fill="none" xmlns="http://www.w3.org/2000/svg"><path d="M88.65 177.49l-46.37-26.77c-5.23-3-9.47-11.12-9.47-18.09V9.15c0-3.54-2.91-4.33-1.15-5.6.07 0 4.14-1.9 4.22-1.93a6.84 6.84 0 016.4.37l46.37 26.77c5.23 3 9.47 11.12 9.47 18.1v123.47c0 3.7-1.2 6.35-3.11 7.55-.11.08-5 2.41-5.14 2.45-1.69.56 1.06-1.52-1.22-2.84z" fill="url(#paint0_linear_91_419)"/><path style="mix-blend-mode:color-dodge" d="M88.22 28.9L41.86 2.14c-2.47-1.43 43.8 27.62 43.8 27.62 5.23 3 9.47 11.12 9.47 18.09 0 0 2.56 126.33 2.56 122.62V47c0-7-4.24-15.08-9.47-18.1z" fill="url(#paint1_radial_91_419)"/><path style="mix-blend-mode:screen" opacity=".6" d="M85 179.13l-46.32-26.76c-5.23-3-9.47-11.12-9.47-18.1V10.8c0-7 4.24-10.18 9.47-7.16L85 30.41c5.23 3 9.47 11.12 9.47 18.09V172c.04 7-4.2 10.15-9.47 7.13z" fill="url(#paint2_radial_91_419)"/><path d="M84.22 179.58l-46.36-26.77c-5.23-3-9.47-11.12-9.47-18.09V11.25c0-7 4.24-10.18 9.47-7.16l46.36 26.76c5.23 3 9.47 11.13 9.47 18.1v123.47c0 6.97-4.24 10.18-9.47 7.16z" fill="url(#paint3_linear_91_419)"/><path d="M29.68 135.54V11.92C29.68 5.8 33.39 3 38 5.64l46.1 26.63c4.58 2.64 8.3 9.74 8.3 15.86v123.62c0 6.12-3.72 8.92-8.3 6.28L38 151.4c-4.61-2.65-8.32-9.75-8.32-15.86z" fill="url(#paint4_linear_91_419)"/><path d="M31.52 136.29v-123c0-5.11 3.11-7.47 7-5.25L83.61 34.1c3.83 2.21 6.94 8.16 6.94 13.27v123c0 5.12-3.11 7.47-6.94 5.26l-45.14-26.06c-3.84-2.22-6.95-8.16-6.95-13.28z" fill="url(#paint5_linear_91_419)"/><path d="M39 9.4c-3.61-2.09-6.55-.42-6.55 3.73v124.39A14.437 14.437 0 0039 148.81l44.09 25.46c3.62 2.08 6.55.41 6.55-3.74V46.15a14.4 14.4 0 00-6.55-11.29L39 9.4z" fill="url(#paint6_linear_91_419)"/><path d="M79.57 40.77l5.73 3.31c.22.12.39 0 .39-.23a.86.86 0 00-.39-.68l-5.73-3.31c-.21-.12-.39 0-.39.23a.879.879 0 00.39.68zm5.73 4.44l-5.73-3.31c-.21-.12-.39 0-.39.23a.89.89 0 00.39.68l5.73 3.31c.22.12.39 0 .39-.23a.86.86 0 00-.39-.68zm0 2l-5.73-3.31c-.21-.12-.39 0-.39.23a.89.89 0 00.39.68l5.73 3.3c.22.13.39 0 .39-.22a.85.85 0 00-.39-.64v-.04zM44.22 21.604c.373-.217.371-.911-.002-1.55-.374-.639-.978-.98-1.35-.763-.372.217-.37.911.003 1.55.374.64.978.98 1.35.763zm-2.6-2.274c0 .6-.43.84-.95.54a2.09 2.09 0 01-1-1.64c0-.61.43-.85 1-.55a2.13 2.13 0 01.95 1.65zm-2.88-1.67c0 .6-.42.84-1 .54a2.08 2.08 0 01-.95-1.65c0-.6.42-.84.95-.54a2.099 2.099 0 011 1.65z" fill="#fff"/><path d="M83.08 34.86L39 9.4c-3.61-2.09-6.55-.42-6.55 3.73v124.39A14.437 14.437 0 0039 148.81l44.09 25.46c3.62 2.08 6.55.41 6.55-3.74V46.15a14.4 14.4 0 00-6.56-11.29zm6 135.67a4.919 4.919 0 01-.87 3.07 2.711 2.711 0 01-2.17 1 5.446 5.446 0 01-2.65-.83l-44.11-25.45a13.827 13.827 0 01-6.28-10.8V13.13c0-2.5 1.17-4.06 3-4.06a5.54 5.54 0 012.66.82L82.8 35.35a13.82 13.82 0 016.26 10.8l.02 124.38z" fill="#BCBEC0"/><path d="M58 117.39v-7.85a3.845 3.845 0 011.918-3.329 3.843 3.843 0 013.842-.001l17.69 10.2a7.37 7.37 0 013.69 6.39v7.84a3.84 3.84 0 01-5.81 3.36l-17.69-10.2a7.345 7.345 0 01-3.64-6.41z" fill="url(#paint7_linear_91_419)"/><path d="M57 117.81V110a3.853 3.853 0 013.84-3.837 3.847 3.847 0 011.92.507l17.7 10.2a7.374 7.374 0 013.69 6.39v7.85a3.853 3.853 0 01-3.84 3.837 3.847 3.847 0 01-1.92-.507l-17.7-10.2a7.382 7.382 0 01-3.69-6.43z" fill="url(#paint8_linear_91_419)"/><path style="mix-blend-mode:color-dodge" d="M80.45 116.83l-17.7-10.2a3.797 3.797 0 00-3.5-.16 3.76 3.76 0 012.94.38L79.88 117a7.37 7.37 0 013.69 6.39v7.85a3.797 3.797 0 01-2.25 3.49 3.83 3.83 0 002.82-3.7v-7.85a7.38 7.38 0 00-3.69-6.35z" fill="url(#paint9_radial_91_419)"/><path d="M68.44 119.89l-3.97-8.15 12.48 13.07-12.77-1.18 4.26-3.74z" fill="#fff"/><path d="M37.69 78v-7.83a3.84 3.84 0 015.76-3.33l37.3 21.24a7.38 7.38 0 013.69 6.39v7.85a3.854 3.854 0 01-1.923 3.32 3.853 3.853 0 01-3.837.01L41.38 84.4a7.37 7.37 0 01-3.69-6.4z" fill="#3D065F"/><path d="M79.68 105.15L42.38 83.9a7.37 7.37 0 01-3.69-6.38v-7.85a3.79 3.79 0 011.65-3.15 3.83 3.83 0 00-2.65 3.65V78a7.368 7.368 0 003.69 6.38l37.3 21.25a3.811 3.811 0 004.11-.19 3.781 3.781 0 01-3.11-.29z" fill="#BCBEC0"/><path d="M67.66 44L54.3 36.26c-.82-.47-1.49-.09-1.49.85v9a3.27 3.27 0 001.49 2.56l13.36 7.71c.82.48 1.49.1 1.49-.84v-9A3.272 3.272 0 0067.66 44zm.78 12.16l-5.27-8.09L61 49.21l-2.19-3.7-5.27 2s4.31-2.62 4.75-2.89c-2.2-3.62-4.89-8.2-4.89-8.21L61 47.8s7.59-2.62 7.6-2.6l-4.9 2.57c.48.86 4.75 8.36 4.74 8.37v.02z" fill="#CFB1E3" opacity=".8"/><path opacity=".7" d="M42.53 80.28a9.341 9.341 0 01-1.39-4.22v-1.99a3.9 3.9 0 01.69-2 1.93 1.93 0 011.57-.76 4.78 4.78 0 012.4.77 9.36 9.36 0 014.86 7.5v1.73c0 .7-.23 1.14-.57 1.33a1.3 1.3 0 01-1.3-.17 3.181 3.181 0 01-1-.81 3.823 3.823 0 01-.57-.88.86.86 0 01-.58.35 1.91 1.91 0 01-1.09-.35 4 4 0 01-1.54-1.7 5.65 5.65 0 01-.57-2.57 2.551 2.551 0 01.56-1.95c.38-.32.88-.3 1.53.07a2.9 2.9 0 01.78.64 3.5 3.5 0 01.53.82v-.22c0-.107.03-.177.09-.21a.25.25 0 01.23 0l.52.3a.54.54 0 01.22.23c.06.092.091.2.09.31v3.11a2.15 2.15 0 00.2 1c.12.253.316.462.56.6.26.16.46.16.57 0a1.2 1.2 0 00.17-.68v-1.52a6 6 0 00-1-3 7.999 7.999 0 00-2.77-2.59 2.758 2.758 0 00-2.47-.51c-.58.27-.93.93-1 2-.021.386-.021.773 0 1.16-.023.23-.023.46 0 .69a6.671 6.671 0 001.05 3.17 7.26 7.26 0 002.56 2.37c.42.253.861.467 1.32.64.268.065.545.086.82.06.203-.012.404-.046.6-.1h.18a.3.3 0 01.18 0l.73.42a.64.64 0 01.22.24.61.61 0 01.09.3.28.28 0 01-.08.18c-.92.667-2.253.48-4-.56a9.461 9.461 0 01-3.39-3.2zm4.09-.64a1.9 1.9 0 00.26-1.19 3.929 3.929 0 00-.26-1.51 2 2 0 00-.87-1c-.75-.43-1.12 0-1.12 1.16a3.6 3.6 0 00.28 1.47 2 2 0 00.84 1c.4.25.69.27.87.07z" fill="#9F19AB"/><path d="M54.63 114.07a.544.544 0 01-.22 0c-.58-.28-1.18-.61-1.8-1a.504.504 0 01.51-.87c.59.35 1.17.66 1.73.93a.499.499 0 01-.22.95v-.01zm-3.47-2a.449.449 0 01-.27-.08c-.55-.36-1.11-.74-1.67-1.14a.51.51 0 01.032-.835.487.487 0 01.38-.065.493.493 0 01.178.08c.55.4 1.09.77 1.63 1.12a.51.51 0 01.14.7.526.526 0 01-.42.22zm-3.25-2.33a.529.529 0 01-.31-.11c-.52-.4-1-.83-1.57-1.27a.5.5 0 01-.06-.7.52.52 0 01.71-.07c.51.44 1 .85 1.54 1.25a.51.51 0 01.09.71.53.53 0 01-.4.19zm-3.06-2.57a.551.551 0 01-.34-.13c-.49-.45-1-.91-1.48-1.38a.496.496 0 01-.147-.35.492.492 0 01.31-.459.489.489 0 01.384 0 .49.49 0 01.163.109c.48.46 1 .92 1.45 1.35a.495.495 0 01.11.547.512.512 0 01-.45.313zM42 104.39a.508.508 0 01-.36-.15c-.47-.47-.93-1-1.38-1.46a.51.51 0 01-.158-.366.502.502 0 01.73-.443.51.51 0 01.158.129c.45.49.91 1 1.37 1.44a.497.497 0 01.11.547.497.497 0 01-.47.303zm-2.7-3a.53.53 0 01-.38-.17 42.61 42.61 0 01-1.29-1.56.5.5 0 01.78-.62c.42.52.84 1 1.27 1.53a.5.5 0 01-.38.82zm-2.5-3.13a.51.51 0 01-.4-.2c-.4-.54-.79-1.09-1.17-1.65a.49.49 0 01.13-.69.5.5 0 01.7.13c.37.55.75 1.08 1.14 1.62a.501.501 0 01-.1.7.53.53 0 01-.34.14l.04-.05zM34.51 95a.481.481 0 01-.42-.23c-.36-.58-.71-1.16-1-1.74a.501.501 0 11.87-.49c.32.57.66 1.14 1 1.7a.49.49 0 01-.16.69.48.48 0 01-.29.07zm-1.95-3.49a.49.49 0 01-.45-.28c-.3-.61-.59-1.22-.85-1.84a.5.5 0 01.26-.65.51.51 0 01.66.26c.25.6.53 1.2.83 1.79a.499.499 0 01-.23.67.44.44 0 01-.22.05zM31 87.84a.51.51 0 01-.48-.34c-.23-.65-.44-1.3-.62-1.93a.518.518 0 111-.27c.17.61.37 1.24.6 1.87a.51.51 0 01-.5.67zM29.9 84a.5.5 0 01-.49-.39c-.15-.65-.32-1.29-.49-1.91a.51.51 0 01.35-.62.5.5 0 01.61.35c.18.63.35 1.29.5 2A.49.49 0 0130 84h-.1zm-1.08-3.85a.5.5 0 01-.48-.34c-.21-.64-.43-1.26-.67-1.85a.509.509 0 01.33-.66.499.499 0 01.65.28c.24.61.47 1.25.69 1.9a.5.5 0 01-.31.64l-.21.03zm-1.47-3.71a.491.491 0 01-.45-.3c-.28-.61-.58-1.19-.88-1.75a.501.501 0 11.88-.48c.31.58.61 1.18.91 1.82a.51.51 0 01-.25.66.544.544 0 01-.21.04v.01zm-1.9-3.51a.49.49 0 01-.42-.24c-.26-.4-.52-.79-.79-1.17H24a.5.5 0 01-.56-.43.51.51 0 01.42-.56.648.648 0 01.15-.18.51.51 0 01.68.07l1.16-.15a.49.49 0 01.57.42.51.51 0 01-.43.57l-.64.08c.18.26.35.52.52.79a.5.5 0 01-.15.69.561.561 0 01-.27.1v.01zm-12.14-.59h-1.37a.499.499 0 01.03-1H14a.499.499 0 01.51.49.51.51 0 01-.5.51h-.7zm2.69-.07a.5.5 0 110-1l2-.12a.51.51 0 01.54.47.5.5 0 01-.47.53l-2 .12H16zm-6-.08h-.09c-.73-.07-1.41-.16-2-.28a.51.51 0 01-.317-.772.492.492 0 01.517-.208c.58.11 1.23.2 1.93.27a.5.5 0 110 1l-.04-.01zM20 72a.5.5 0 01-.49-.46.489.489 0 01.45-.54l2-.21a.503.503 0 01.11 1L20 72zm-13.9-.61h-.16c-.69-.24-1.33-.49-1.91-.75a.5.5 0 01-.24-.67.491.491 0 01.66-.24c.55.25 1.16.49 1.81.71a.506.506 0 11-.16 1v-.05zM27.9 71a.501.501 0 01-.07-1l2-.31a.498.498 0 01.58.41.52.52 0 01-.42.58L28 71h-.1zm4-.64a.5.5 0 01-.5-.41.51.51 0 01.41-.58l2-.34a.488.488 0 01.58.4.5.5 0 01-.4.58l-2 .35h-.09zm-8.8-.63a.52.52 0 01-.38-.17c-.43-.5-.89-1-1.35-1.41a.504.504 0 01.33-.867.502.502 0 01.36.137c.48.47 1 1 1.41 1.48a.5.5 0 010 .7.5.5 0 01-.41.12l.04.01zm-20.61 0a.52.52 0 01-.29-.09A6.112 6.112 0 01.59 68.1a.51.51 0 01.13-.7.51.51 0 01.7.13 5.1 5.1 0 001.31 1.24.5.5 0 01-.28.91l.04.05zm33.35 0a.49.49 0 01-.49-.41.51.51 0 01.4-.59l2-.37a.49.49 0 01.59.39.51.51 0 01-.4.59l-2 .38-.1.01zm3.93-.77a.51.51 0 01-.49-.4.5.5 0 01.39-.59l2-.4a.489.489 0 01.59.38.5.5 0 01-.38.6l-2 .4-.11.01zm3.92-.82a.49.49 0 01-.48-.39.502.502 0 01.38-.6l2-.42a.512.512 0 11.22 1l-2 .42-.12-.01zm3.92-.86a.5.5 0 01-.49-.39.51.51 0 01.38-.6l1.95-.44a.5.5 0 01.6.38.5.5 0 01-.38.59l-2 .45-.06.01zM20.16 67a.52.52 0 01-.31-.1 19.129 19.129 0 00-1.58-1.14.5.5 0 11.54-.84c.57.37 1.13.77 1.66 1.19a.5.5 0 01-.31.89zM.54 66.43H.45a.51.51 0 01-.4-.59 3.47 3.47 0 011.19-1.94.5.5 0 01.819.54.49.49 0 01-.109.16A2.56 2.56 0 001 66a.49.49 0 01-.46.43zm50.93-.13a.503.503 0 01-.11-1l2-.47a.512.512 0 11.23 1l-1.95.47h-.17zm3.9-.94a.49.49 0 01-.48-.38.482.482 0 01.36-.6l2-.49a.51.51 0 01.61.563.488.488 0 01-.37.407l-1.95.49-.17.01zm-38.56-.56a.462.462 0 01-.23 0c-.578-.3-1.172-.566-1.78-.8a.51.51 0 01-.28-.65.5.5 0 01.64-.28c.64.243 1.264.524 1.87.84a.49.49 0 01.22.67.5.5 0 01-.44.22zm42.45-.42a.504.504 0 01-.12-1l1.23-.33.31-.06.42-.09a.52.52 0 01.6.39.51.51 0 01-.39.59l-.45.09c-.25.09-.7.2-1.48.41h-.12zm-56-.67a.51.51 0 01-.2-1 12.099 12.099 0 012-.65.5.5 0 01.409.891.492.492 0 01-.179.079 10.58 10.58 0 00-1.81.6.45.45 0 01-.21.08h-.01zm59.9-.3a.52.52 0 01-.49-.37.51.51 0 01.35-.62c.56-.15 1.2-.35 1.89-.59a.5.5 0 01.604.699.5.5 0 01-.284.251c-.7.24-1.36.44-1.94.61l-.13.02zm-50.08 0a.34.34 0 01-.14 0c-.626-.167-1.26-.3-1.9-.4a.507.507 0 01.16-1c.674.105 1.342.249 2 .43a.504.504 0 11-.13 1l.01-.03zm-5.95-.58a.5.5 0 010-1 15.561 15.561 0 012.06 0 .5.5 0 110 1c-.646-.04-1.294-.04-1.94 0h-.12zM67 62.1a.5.5 0 01-.47-.31.51.51 0 01.27-.65 32.41 32.41 0 001.8-.81.5.5 0 11.44.89c-.58.3-1.21.58-1.85.84a.46.46 0 01-.19.04zm3.58-1.79a.5.5 0 01-.26-.92 18.048 18.048 0 001.6-1.1.503.503 0 11.61.8c-.52.39-1.09.78-1.69 1.15a.541.541 0 01-.3.07h.04zm3.15-2.44a.52.52 0 01-.35-.14.5.5 0 010-.71c.452-.45.86-.943 1.22-1.47a.499.499 0 01.833.004.501.501 0 01-.003.556 12.357 12.357 0 01-1.33 1.61.51.51 0 01-.41.15h.04zm-18.63-2.2a.51.51 0 01-.42-.23l-1.08-1.69a.501.501 0 01.16-.69.49.49 0 01.69.16l1.07 1.68a.5.5 0 01-.15.69.45.45 0 01-.31.08h.04zm20.85-1.09a.65.65 0 01-.19 0 .51.51 0 01-.28-.65 7.57 7.57 0 00.48-1.81.5.5 0 01.56-.42.489.489 0 01.43.56 9.01 9.01 0 01-.54 2 .49.49 0 01-.5.32h.04zm-23-2.3a.47.47 0 01-.42-.24c-.35-.56-.69-1.14-1-1.72a.507.507 0 01.18-.69.505.505 0 01.69.18l1 1.71a.5.5 0 01-.47.76h.02zm23.54-1.62a.5.5 0 01-.5-.47 13.09 13.09 0 00-.28-1.9.52.52 0 01.39-.6.499.499 0 01.59.39c.145.66.245 1.327.3 2a.5.5 0 01-.47.54l-.03.04zm-25.58-1.83a.5.5 0 01-.44-.25c-.33-.59-.65-1.18-1-1.77a.49.49 0 01.2-.67.5.5 0 01.68.2c.31.58.64 1.17 1 1.74a.51.51 0 01-.19.69.53.53 0 01-.25.06zm24.73-2.07a.491.491 0 01-.47-.34 18.512 18.512 0 00-.73-1.81.501.501 0 01.794-.6.499.499 0 01.106.18c.294.619.554 1.253.78 1.9a.51.51 0 01-.48.67zM49 45.3a.5.5 0 01-.44-.27c-.31-.6-.61-1.21-.89-1.81a.5.5 0 01.9-.43c.28.6.58 1.19.88 1.79a.5.5 0 01-.22.67.46.46 0 01-.23.05zm25-2.17a.49.49 0 01-.43-.24c-.34-.56-.7-1.11-1.08-1.63a.5.5 0 01.483-.79.5.5 0 01.327.2c.405.55.782 1.121 1.13 1.71a.49.49 0 01-.18.68.47.47 0 01-.25.07zm-26.69-1.45a.491.491 0 01-.46-.3c-.28-.63-.53-1.26-.76-1.87a.503.503 0 01.123-.546.498.498 0 01.807.186c.23.6.48 1.22.75 1.84a.49.49 0 01-.27.65.43.43 0 01-.19.04zm24.28-1.76a.522.522 0 01-.37-.16 17.715 17.715 0 00-1.39-1.36.491.491 0 010-.7.5.5 0 01.7-.06A18.16 18.16 0 0172 39.08a.51.51 0 010 .71.5.5 0 01-.41.13zm-10.92-1.31l-.36-1c-.13-.37-.28-.75-.44-1.12a.503.503 0 01.45-.702.49.49 0 01.46.302l.15.34a.5.5 0 01.68.73c-.147.17-.28.35-.4.54l-.54.91zm-14.77-.67a.491.491 0 01-.47-.35c-.22-.69-.39-1.36-.53-2a.51.51 0 111-.21c.13.59.3 1.23.5 1.89a.51.51 0 01-.33.63l-.17.04zm22.65-.61a.54.54 0 01-.27-.07l-.36-.26a9.916 9.916 0 00-1.33-.63.504.504 0 01.36-.94c.505.198.993.435 1.46.71.14.07.27.16.41.24a.5.5 0 01.15.69.48.48 0 01-.42.26zm-5.69-1.1a.501.501 0 01-.47-.33.51.51 0 01.3-.64 4.998 4.998 0 012.18-.26.5.5 0 01.407.728.501.501 0 01-.487.272 4.18 4.18 0 00-1.79.2l-.14.03zM59.44 35a.5.5 0 01-.44-.25c-.32-.57-.67-1.13-1-1.66a.5.5 0 01.82-.57c.394.56.758 1.141 1.09 1.74a.5.5 0 01-.19.68.531.531 0 01-.28.06zM45.1 34a.5.5 0 01-.5-.47v-.73c-.001-.455.029-.91.09-1.36a.49.49 0 01.56-.43.489.489 0 01.43.56 9.55 9.55 0 00-.08 1.23v.66a.499.499 0 01-.47.54h-.03zm12-2.27a.491.491 0 01-.38-.18c-.422-.49-.873-.954-1.35-1.39a.501.501 0 010-.71.5.5 0 01.7 0c.507.463.984.958 1.43 1.48a.488.488 0 01-.05.7.45.45 0 01-.3.13l-.05-.03zm-11.43-1.62a.481.481 0 01-.2 0 .51.51 0 01-.26-.66 5.27 5.27 0 011.27-1.8.503.503 0 11.67.75c-.434.405-.775.9-1 1.45a.5.5 0 01-.48.26zm8.52-1a.491.491 0 01-.28-.09c-.25-.17-.5-.33-.76-.48a9.55 9.55 0 00-.9-.46.5.5 0 01.41-.91c.345.146.68.316 1 .51.28.16.55.33.82.51a.498.498 0 01.13.7.491.491 0 01-.42.19v.03zm-5.63-1.52a.504.504 0 01-.12-1 5.518 5.518 0 012.19-.07.5.5 0 01.41.57.49.49 0 01-.57.42 4.638 4.638 0 00-1.79.05l-.12.03z" fill="#D9D9D9"/><path style="mix-blend-mode:color-dodge" d="M55.41 56.21A.52.52 0 0155 56c-4.75-7.3-10.42-17.24-10.42-23.16 0-2.73 1-4.78 2.67-5.77 1.67-.99 4-.8 6.41.59a18.79 18.79 0 017.61 9.65.51.51 0 01-.31.64.5.5 0 01-.64-.3 17.75 17.75 0 00-7.16-9.13c-2.07-1.2-4-1.41-5.41-.59-1.41.82-2.17 2.55-2.17 4.91 0 5.67 5.58 15.42 10.26 22.61a.5.5 0 01-.15.69.45.45 0 01-.28.07z" fill="url(#paint10_radial_91_419)"/><path d="M133.78 79.32l-4.77-1.73-3.88-4.28-2.92 6-2.91-9.39-5.12.35-3.02-2.8 3.14 2.72 5.09-.3 2.85 9.03 2.89-5.61 3.89 4.09 4.76 1.92z" fill="#fff"/><path d="M102.93 191.63v-3.57l-2.76 1.09-24.88-14.36a6.497 6.497 0 00-5.86 0l-14.64 8.45-2-1.53v3.61a2 2 0 001.2 1.81l16.53 9.53v9.51l8.21-4.74 1.65 1a6.477 6.477 0 005.85 0l15.51-8.95a1.997 1.997 0 001.19-1.85z" fill="url(#paint11_linear_91_419)"/><path d="M101.72 186.24L75.29 171a6.433 6.433 0 00-5.86 0l-15.5 8.95c-1.62.93-1.61 2.44 0 3.38l16.53 9.54v9.51l8.21-4.74 1.65.95a6.45 6.45 0 005.85 0l15.51-8.95c1.67-.95 1.67-2.46.04-3.4z" fill="url(#paint12_linear_91_419)"/><path d="M74 180.75c0 1-1.38 1.79-3.09 1.78-1.71-.01-3.11-.8-3.12-1.79-.01-.99 1.38-1.79 3.1-1.79 1.72 0 3.11.81 3.11 1.8zm7.12 4.13c0 1-1.38 1.79-3.09 1.79s-3.11-.81-3.12-1.8c-.01-.99 1.38-1.79 3.1-1.79 1.72 0 3.11.81 3.11 1.8zm7.16 4.12c0 1-1.38 1.79-3.09 1.79s-3.11-.81-3.12-1.8c-.01-.99 1.38-1.79 3.1-1.78 1.72.01 3.11.79 3.11 1.79z" fill="#fff"/><path d="M78.73 197.61v3.81l-8.21 4.74v-3.81l8.21-4.74z" fill="url(#paint13_linear_91_419)"/><path style="mix-blend-mode:color-dodge" d="M101.74 189.46l-15.51 8.95a6.45 6.45 0 01-5.85 0l-1.65-1-8.21 4.74v-9.51l-16.53-9.54a2.279 2.279 0 01-1.15-1.31c-.22.74.16 1.53 1.15 2.11l16.53 9.53v9.51l8.21-4.74 1.65 1a6.477 6.477 0 005.85 0l15.51-9c1-.57 1.35-1.34 1.14-2.08a2.275 2.275 0 01-1.14 1.34z" fill="url(#paint14_radial_91_419)"/><path d="M102.93 187.65v-3.57l-2.76 1.09-24.88-14.36a6.472 6.472 0 00-5.86 0l-14.64 8.45-2-1.53v3.6a2 2 0 001.2 1.81l16.53 9.54v9.51l8.21-4.74 1.65.95a6.45 6.45 0 005.85 0l15.51-9c.342-.151.635-.395.845-.705.211-.309.33-.671.345-1.045z" fill="url(#paint15_linear_91_419)"/><path d="M101.72 182.26L75.29 167a6.498 6.498 0 00-5.86 0l-15.5 9c-1.62.93-1.61 2.44 0 3.38l16.53 9.54v9.51l8.21-4.74 1.65 1a6.45 6.45 0 005.85 0l15.51-9c1.67-.98 1.67-2.5.04-3.43z" fill="url(#paint16_linear_91_419)"/><path d="M74 176.76c0 1-1.38 1.79-3.09 1.79s-3.11-.81-3.12-1.8c-.01-.99 1.38-1.79 3.1-1.78 1.72.01 3.11.8 3.11 1.79zm7.12 4.14c0 1-1.38 1.79-3.09 1.79s-3.11-.81-3.12-1.8c-.01-.99 1.38-1.79 3.1-1.79 1.72 0 3.11.81 3.11 1.8zm7.168 4.134c.005-.989-1.382-1.798-3.1-1.807-1.718-.009-3.114.784-3.12 1.773-.005.989 1.383 1.798 3.1 1.807 1.718.009 3.115-.785 3.12-1.773z" fill="#fff"/><path d="M78.73 193.63v3.81l-8.21 4.74v-3.81l8.21-4.74z" fill="url(#paint17_linear_91_419)"/><path style="mix-blend-mode:color-dodge" d="M101.74 185.48l-15.51 9a6.45 6.45 0 01-5.85 0l-1.65-.95-8.21 4.74v-9.51l-16.53-9.54a2.279 2.279 0 01-1.15-1.31c-.22.74.16 1.53 1.15 2.1l16.53 9.54v9.51l8.21-4.74 1.65 1a6.477 6.477 0 005.85 0l15.51-9c1-.56 1.35-1.34 1.14-2.07a2.291 2.291 0 01-1.14 1.23z" fill="url(#paint18_radial_91_419)"/><path d="M102.93 183.58V180l-2.76 1.09-24.88-14.35a6.47 6.47 0 00-5.86 0l-14.64 8.46-2-1.53v3.6a2 2 0 001.2 1.81l16.53 9.54v9.51l8.21-4.74 1.65.95a6.45 6.45 0 005.85 0l15.51-9a1.998 1.998 0 001.19-1.76z" fill="url(#paint19_linear_91_419)"/><path d="M101.72 178.18l-26.43-15.26a6.471 6.471 0 00-5.86 0l-15.5 9c-1.62.93-1.61 2.45 0 3.38l16.53 9.54v9.51l8.21-4.74 1.65 1a6.477 6.477 0 005.85 0l15.51-9c1.67-.98 1.67-2.49.04-3.43z" fill="url(#paint20_linear_91_419)"/><path d="M74 172.69c0 1-1.38 1.79-3.09 1.79s-3.11-.81-3.12-1.8c-.01-.99 1.38-1.79 3.1-1.79 1.72 0 3.11.81 3.11 1.8zm7.12 4.13c0 1-1.38 1.79-3.09 1.79s-3.11-.81-3.12-1.8c-.01-.99 1.38-1.81 3.09-1.81s3.12.83 3.12 1.82zm7.16 4.18c0 1-1.38 1.79-3.09 1.79s-3.11-.81-3.12-1.8c-.01-.99 1.38-1.79 3.1-1.79 1.72 0 3.11.8 3.11 1.8z" fill="#fff"/><path d="M78.73 189.55v3.82l-8.21 4.74v-3.82l8.21-4.74z" fill="url(#paint21_linear_91_419)"/><path style="mix-blend-mode:color-dodge" d="M101.74 181.4l-15.51 9a6.477 6.477 0 01-5.85 0l-1.65-1-8.21 4.74v-9.51l-16.53-9.54a2.298 2.298 0 01-1.15-1.3c-.22.74.16 1.53 1.15 2.1l16.53 9.54v9.51l8.21-4.74 1.65.95a6.45 6.45 0 005.85 0l15.51-9c1-.56 1.35-1.34 1.14-2.07a2.31 2.31 0 01-1.14 1.32z" fill="url(#paint22_radial_91_419)"/><g style="mix-blend-mode:screen" opacity=".7"><path d="M81.93 126.78a.46.46 0 01-.22-.06l-.89-.45a.509.509 0 01-.307-.49.496.496 0 01.36-.452.5.5 0 01.397.052l.89.45a.51.51 0 01.385.615.512.512 0 01-.615.385v-.05z" fill="url(#paint23_radial_91_419)"/><path d="M119.26 81.27a.502.502 0 01-.488-.636.5.5 0 01.168-.254c.27-.22.53-.43.81-.63a.5.5 0 01.7.11.508.508 0 01-.11.7l-.77.59a.47.47 0 01-.31.12z" fill="url(#paint24_radial_91_419)"/></g><path d="M119.26 81.27a.502.502 0 01-.488-.636.5.5 0 01.168-.254c.27-.22.53-.43.81-.63a.504.504 0 01.557-.023c.056.035.104.08.143.133a.513.513 0 01-.11.7l-.77.59a.468.468 0 01-.31.12z" fill="url(#paint25_radial_91_419)"/><path style="mix-blend-mode:color-dodge" d="M125.48 173.6c-3.63 0-7.22-2.52-10.43-7.41C103 147.75 97.47 96 119.7 79.5a.5.5 0 01.7.11.508.508 0 01-.11.7c-9.35 6.93-14.72 22-14.75 41.41 0 16.81 4.14 34.46 10.34 43.92 3 4.51 7.72 9.19 13.53 5.83a.507.507 0 01.381-.049.505.505 0 01.367.42.495.495 0 01-.101.37.505.505 0 01-.147.129 8.838 8.838 0 01-4.43 1.26z" fill="url(#paint26_radial_91_419)"/><path style="mix-blend-mode:color-dodge" d="M63 65a11.79 11.79 0 10-11.209-20.745A11.79 11.79 0 0063.001 65z" fill="url(#paint27_radial_91_419)"/><path style="mix-blend-mode:color-dodge" d="M87.395 135.163a11.794 11.794 0 006.124-11.57 11.79 11.79 0 10-6.124 11.57z" fill="url(#paint28_radial_91_419)"/><defs><linearGradient id="paint0_linear_91_419" x1="17.5" y1="6.67" x2="78.07" y2="111.57" gradientUnits="userSpaceOnUse"><stop offset=".06" stop-color="#200041"/><stop offset=".26" stop-color="#210243"/><stop offset=".36" stop-color="#25084B"/><stop offset=".43" stop-color="#2C1358"/><stop offset=".47" stop-color="#311B61"/><stop offset=".48" stop-color="#351F65"/><stop offset=".5" stop-color="#422C73"/><stop offset=".51" stop-color="#584188"/><stop offset=".52" stop-color="#765FA7"/><stop offset=".53" stop-color="#8770B8"/><stop offset=".54" stop-color="#7E67AE"/><stop offset=".56" stop-color="#5C468D"/><stop offset=".59" stop-color="#442E75"/><stop offset=".61" stop-color="#362066"/><stop offset=".63" stop-color="#311B61"/><stop offset=".67" stop-color="#2A1155"/><stop offset=".75" stop-color="#230446"/><stop offset=".81" stop-color="#200041"/><stop offset="1" stop-color="#200041"/></linearGradient><linearGradient id="paint3_linear_91_419" x1="98.01" y1="103.41" x2="-87.09" y2="45.46" gradientUnits="userSpaceOnUse"><stop offset=".19" stop-color="#3D065F"/><stop offset=".93" stop-color="#3D065F"/></linearGradient><linearGradient id="paint4_linear_91_419" x1="100.42" y1="175.04" x2="6.42" y2="-23.58" gradientUnits="userSpaceOnUse"><stop stop-color="#311B61"/><stop offset=".2" stop-color="#290F52"/><stop offset=".49" stop-color="#200041"/><stop offset="1" stop-color="#0F001F"/></linearGradient><linearGradient id="paint5_linear_91_419" x1="31.52" y1="91.83" x2="90.55" y2="91.83" gradientUnits="userSpaceOnUse"><stop stop-color="#311B61"/><stop offset=".2" stop-color="#290F52"/><stop offset=".49" stop-color="#200041"/><stop offset="1" stop-color="#0F001F"/></linearGradient><linearGradient id="paint6_linear_91_419" x1="24.85" y1="22.83" x2="114.67" y2="194.09" gradientUnits="userSpaceOnUse"><stop offset=".01" stop-color="#9F19AB"/><stop offset=".43" stop-color="#5F27BD"/><stop offset=".9" stop-color="#3D065F"/></linearGradient><linearGradient id="paint7_linear_91_419" x1="75.08" y1="113.83" x2="84.3" y2="97.62" gradientUnits="userSpaceOnUse"><stop offset=".04" stop-color="#9F19AB"/><stop offset=".24" stop-color="#AE25B1"/><stop offset=".65" stop-color="#D744BF"/><stop offset="1" stop-color="#FF63CE"/></linearGradient><linearGradient id="paint8_linear_91_419" x1="49.49" y1="125.67" x2="88" y2="116.25" gradientUnits="userSpaceOnUse"><stop offset=".04" stop-color="#9F19AB"/><stop offset=".24" stop-color="#AE25B1"/><stop offset=".65" stop-color="#D744BF"/><stop offset="1" stop-color="#FF63CE"/></linearGradient><linearGradient id="paint11_linear_91_419" x1="65.43" y1="192.3" x2="152.54" y2="166.21" gradientUnits="userSpaceOnUse"><stop offset=".04" stop-color="#6B24D6"/><stop offset=".29" stop-color="#7733DC"/><stop offset=".79" stop-color="#975CED"/><stop offset="1" stop-color="#A56EF4"/></linearGradient><linearGradient id="paint12_linear_91_419" x1="104.55" y1="133.86" x2="71.94" y2="195.99" gradientUnits="userSpaceOnUse"><stop offset=".04" stop-color="#6B24D6"/><stop offset=".29" stop-color="#7733DC"/><stop offset=".79" stop-color="#975CED"/><stop offset="1" stop-color="#A56EF4"/></linearGradient><linearGradient id="paint13_linear_91_419" x1="71.82" y1="202.73" x2="90.79" y2="197.05" gradientUnits="userSpaceOnUse"><stop offset=".04" stop-color="#6B24D6"/><stop offset=".29" stop-color="#7733DC"/><stop offset=".79" stop-color="#975CED"/><stop offset="1" stop-color="#A56EF4"/></linearGradient><linearGradient id="paint15_linear_91_419" x1="65.43" y1="188.32" x2="152.54" y2="162.23" gradientUnits="userSpaceOnUse"><stop offset=".04" stop-color="#6B24D6"/><stop offset=".29" stop-color="#7733DC"/><stop offset=".79" stop-color="#975CED"/><stop offset="1" stop-color="#A56EF4"/></linearGradient><linearGradient id="paint16_linear_91_419" x1="104.55" y1="129.88" x2="71.94" y2="192.01" gradientUnits="userSpaceOnUse"><stop offset=".04" stop-color="#6B24D6"/><stop offset=".29" stop-color="#7733DC"/><stop offset=".79" stop-color="#975CED"/><stop offset="1" stop-color="#A56EF4"/></linearGradient><linearGradient id="paint17_linear_91_419" x1="71.82" y1="198.74" x2="90.79" y2="193.06" gradientUnits="userSpaceOnUse"><stop offset=".04" stop-color="#6B24D6"/><stop offset=".29" stop-color="#7733DC"/><stop offset=".79" stop-color="#975CED"/><stop offset="1" stop-color="#A56EF4"/></linearGradient><linearGradient id="paint19_linear_91_419" x1="65.43" y1="184.24" x2="152.54" y2="158.16" gradientUnits="userSpaceOnUse"><stop offset=".04" stop-color="#6B24D6"/><stop offset=".29" stop-color="#7733DC"/><stop offset=".79" stop-color="#975CED"/><stop offset="1" stop-color="#A56EF4"/></linearGradient><linearGradient id="paint20_linear_91_419" x1="104.55" y1="125.8" x2="71.94" y2="187.94" gradientUnits="userSpaceOnUse"><stop offset=".04" stop-color="#6B24D6"/><stop offset=".29" stop-color="#7733DC"/><stop offset=".79" stop-color="#975CED"/><stop offset="1" stop-color="#A56EF4"/></linearGradient><linearGradient id="paint21_linear_91_419" x1="71.82" y1="194.67" x2="90.79" y2="188.99" gradientUnits="userSpaceOnUse"><stop offset=".04" stop-color="#6B24D6"/><stop offset=".29" stop-color="#7733DC"/><stop offset=".79" stop-color="#975CED"/><stop offset="1" stop-color="#A56EF4"/></linearGradient><radialGradient id="paint1_radial_91_419" cx="0" cy="0" r="1" gradientUnits="userSpaceOnUse" gradientTransform="translate(111.62 49.29) scale(113.65)"><stop stop-color="#711F56"/><stop offset=".16" stop-color="#6C1E52"/><stop offset=".36" stop-color="#5C1946"/><stop offset=".58" stop-color="#431233"/><stop offset=".82" stop-color="#200918"/><stop offset="1"/></radialGradient><radialGradient id="paint2_radial_91_419" cx="0" cy="0" r="1" gradientUnits="userSpaceOnUse" gradientTransform="translate(92.61 41.17) scale(66.96)"><stop stop-color="#AF8AFC"/><stop offset="1" stop-color="#10054D"/></radialGradient><radialGradient id="paint9_radial_91_419" cx="0" cy="0" r="1" gradientUnits="userSpaceOnUse" gradientTransform="translate(77.77 118.04) scale(13.42)"><stop stop-color="#fff"/><stop offset="1"/></radialGradient><radialGradient id="paint10_radial_91_419" cx="0" cy="0" r="1" gradientUnits="userSpaceOnUse" gradientTransform="matrix(3.51 0 0 3.51 52.26 47.32)"><stop stop-color="#fff"/><stop offset="1"/></radialGradient><radialGradient id="paint14_radial_91_419" cx="0" cy="0" r="1" gradientUnits="userSpaceOnUse" gradientTransform="translate(81.01 196.7) scale(19.26)"><stop stop-color="#fff"/><stop offset=".07" stop-color="#D8D8D8"/><stop offset=".16" stop-color="#A6A6A6"/><stop offset=".26" stop-color="#797979"/><stop offset=".37" stop-color="#545454"/><stop offset=".47" stop-color="#353535"/><stop offset=".59" stop-color="#1E1E1E"/><stop offset=".7" stop-color="#0D0D0D"/><stop offset=".84" stop-color="#030303"/><stop offset="1"/></radialGradient><radialGradient id="paint18_radial_91_419" cx="0" cy="0" r="1" gradientUnits="userSpaceOnUse" gradientTransform="translate(81.01 192.72) scale(19.26)"><stop stop-color="#fff"/><stop offset=".07" stop-color="#D8D8D8"/><stop offset=".16" stop-color="#A6A6A6"/><stop offset=".26" stop-color="#797979"/><stop offset=".37" stop-color="#545454"/><stop offset=".47" stop-color="#353535"/><stop offset=".59" stop-color="#1E1E1E"/><stop offset=".7" stop-color="#0D0D0D"/><stop offset=".84" stop-color="#030303"/><stop offset="1"/></radialGradient><radialGradient id="paint22_radial_91_419" cx="0" cy="0" r="1" gradientUnits="userSpaceOnUse" gradientTransform="translate(81.01 188.64) scale(19.26)"><stop stop-color="#fff"/><stop offset=".07" stop-color="#D8D8D8"/><stop offset=".16" stop-color="#A6A6A6"/><stop offset=".26" stop-color="#797979"/><stop offset=".37" stop-color="#545454"/><stop offset=".47" stop-color="#353535"/><stop offset=".59" stop-color="#1E1E1E"/><stop offset=".7" stop-color="#0D0D0D"/><stop offset=".84" stop-color="#030303"/><stop offset="1"/></radialGradient><radialGradient id="paint23_radial_91_419" cx="0" cy="0" r="1" gradientUnits="userSpaceOnUse" gradientTransform="matrix(88.77 0 0 88.7702 106.88 113.57)"><stop stop-color="#3D065F"/><stop offset=".97" stop-color="#020002"/><stop offset="1"/></radialGradient><radialGradient id="paint24_radial_91_419" cx="0" cy="0" r="1" gradientUnits="userSpaceOnUse" gradientTransform="translate(106.88 113.57) scale(88.77)"><stop stop-color="#3D065F"/><stop offset=".97" stop-color="#020002"/><stop offset="1"/></radialGradient><radialGradient id="paint25_radial_91_419" cx="0" cy="0" r="1" gradientUnits="userSpaceOnUse" gradientTransform="translate(99.77 124.82) scale(78.95)"><stop stop-color="#fff"/><stop offset="1"/></radialGradient><radialGradient id="paint26_radial_91_419" cx="0" cy="0" r="1" gradientUnits="userSpaceOnUse" gradientTransform="translate(112.08 136) scale(20.96)"><stop stop-color="#fff"/><stop offset="1"/></radialGradient><radialGradient id="paint27_radial_91_419" cx="0" cy="0" r="1" gradientUnits="userSpaceOnUse" gradientTransform="rotate(61.894 -18.693 74.106) scale(11.7623)"><stop offset=".09" stop-color="#fff"/><stop offset=".1" stop-color="#E2DEE7"/><stop offset=".12" stop-color="#B0A5BF"/><stop offset=".14" stop-color="#86749C"/><stop offset=".16" stop-color="#634C80"/><stop offset=".17" stop-color="#482D69"/><stop offset=".19" stop-color="#35175A"/><stop offset=".21" stop-color="#290A50"/><stop offset=".23" stop-color="#25054D"/><stop offset=".27" stop-color="#1D043C"/><stop offset=".34" stop-color="#120226"/><stop offset=".42" stop-color="#0A0115"/><stop offset=".51" stop-color="#040109"/><stop offset=".65" stop-color="#010002"/><stop offset="1"/></radialGradient><radialGradient id="paint28_radial_91_419" cx="0" cy="0" r="1" gradientUnits="userSpaceOnUse" gradientTransform="rotate(61.894 -65.004 129.53) scale(11.7623)"><stop offset=".09" stop-color="#fff"/><stop offset=".1" stop-color="#E2DEE7"/><stop offset=".12" stop-color="#B0A5BF"/><stop offset=".14" stop-color="#86749C"/><stop offset=".16" stop-color="#634C80"/><stop offset=".17" stop-color="#482D69"/><stop offset=".19" stop-color="#35175A"/><stop offset=".21" stop-color="#290A50"/><stop offset=".23" stop-color="#25054D"/><stop offset=".27" stop-color="#1D043C"/><stop offset=".34" stop-color="#120226"/><stop offset=".42" stop-color="#0A0115"/><stop offset=".51" stop-color="#040109"/><stop offset=".65" stop-color="#010002"/><stop offset="1"/></radialGradient></defs></svg>