<svg width="95" height="30" viewBox="0 0 95 30" fill="none" xmlns="http://www.w3.org/2000/svg"><path fill="#1A3C7B" d="M0 0h95v30H0z"/><path d="M10 8h6.838l2.284 6.116L21.492 8h6.838v13.331h-3.907V11.96l-3.233 9.37h-4.224l-3.189-9.371v9.371H10V8z" fill="#FFF100"/><path fill-rule="evenodd" clip-rule="evenodd" d="M71.254 10.604C71.254 9.148 72.37 8 73.789 8h8.678c1.418 0 2.535 1.148 2.535 2.604v8.123c0 1.456-1.29 2.604-2.707 2.604h-8.292c-1.417 0-2.75-1.103-2.75-2.56v-8.167zm9.151.972h-4.468c-.343 0-.601.265-.601.618v4.9c0 .353.258.618.601.618h4.468a.596.596 0 00.602-.618v-4.9a.596.596 0 00-.602-.618z" fill="#FFF100"/><path d="M29.996 8h11.665v2.825h-7.307v2.34h7.307v2.78h-7.307v2.473h7.307v2.913H29.996V8zM42.91 8h11.665v2.825h-3.717v10.506h-4.359V10.825H42.91V8z" fill="#FFF100"/><path fill-rule="evenodd" clip-rule="evenodd" d="M55.843 21.288V8.045h11.093c.728 0 1.499.352 2.013 1.056.428.571.514 1.495.514 1.76l-.043 2.991c0 .66-.386 1.364-1.028 1.848-.6.44-1.628.528-1.885.528.343.528 3.084 5.104 3.084 5.104h-4.668l-2.613-5.148h-2.056v5.104h-4.41zm9.378-10.384h-4.968v2.42h4.84c.171 0 .428-.044.514-.132.128-.132.128-.792.128-1.056l.002-.183c.004-.418.009-.807-.216-.96-.043-.045-.214-.089-.3-.089z" fill="#FFF100"/></svg>